<?xml version="1.0" standalone="no"?>
<!DOCTYPE svg PUBLIC "-//W3C//DTD SVG 20010904//EN"
 "http://www.w3.org/TR/2001/REC-SVG-20010904/DTD/svg10.dtd">
<svg version="1.0" xmlns="http://www.w3.org/2000/svg"
 width="433.000000pt" height="577.000000pt" viewBox="0 0 433.000000 577.000000"
 preserveAspectRatio="xMidYMid meet">

<g transform="translate(0.000000,577.000000) scale(0.100000,-0.100000)"
fill="#000000" stroke="none">
<path d="M1070 4390 c-53 -10 -162 -59 -240 -108 -94 -59 -156 -138 -232 -292
-30 -63 -43 -98 -36 -105 6 -7 18 0 34 19 20 23 23 31 12 37 -11 7 -11 9 0 9
7 0 10 5 7 10 -3 6 -1 10 4 10 6 0 10 3 9 8 -4 13 53 95 101 146 25 27 54 57
64 67 9 11 22 19 27 19 6 0 29 13 52 30 26 19 45 27 52 21 11 -9 83 0 105 13
6 4 38 8 71 9 45 1 64 -3 79 -18 12 -10 24 -15 28 -12 4 4 16 -2 28 -13 11
-10 44 -25 73 -33 58 -15 93 -47 113 -105 8 -25 8 -37 0 -45 -15 -15 -14 -27
3 -27 24 0 41 -29 28 -50 -15 -24 8 -34 34 -16 15 11 20 11 31 1 7 -8 10 -20
7 -29 -4 -10 2 -15 23 -18 21 -2 32 -12 47 -43 28 -58 24 -103 -11 -130 -26
-22 -41 -65 -22 -65 5 0 9 -4 9 -10 0 -5 -7 -10 -15 -10 -8 0 -15 -8 -15 -17
0 -10 -7 -31 -15 -47 -8 -15 -13 -32 -10 -37 8 -13 -63 -149 -105 -199 -43
-52 -61 -93 -36 -84 9 3 16 10 16 15 0 13 42 53 72 68 15 8 25 18 22 23 -3 4
-1 8 5 8 5 0 11 10 13 23 2 12 8 21 13 20 14 -4 18 -72 5 -88 -7 -8 -7 -16 -2
-19 13 -8 22 17 23 62 1 28 3 31 6 12 5 -27 23 -52 23 -32 0 13 26 12 48 -1 8
-6 12 -2 12 9 0 26 18 4 22 -26 8 -60 74 -2 84 73 4 33 22 59 35 51 5 -3 7 -9
4 -14 -3 -5 -1 -11 5 -15 5 -3 10 2 10 13 0 25 39 56 75 60 65 7 82 11 150 36
112 42 191 30 264 -38 39 -36 66 -46 100 -40 18 4 37 2 44 -5 8 -6 18 -7 22
-3 5 4 5 2 2 -4 -4 -6 1 -20 9 -30 14 -18 15 -17 10 16 -3 19 -13 80 -21 135
-11 78 -21 109 -43 140 -36 52 -83 82 -138 91 -24 3 -59 17 -77 30 -51 38 -87
52 -178 67 -73 13 -95 13 -150 2 -81 -17 -119 -31 -144 -55 -11 -10 -29 -20
-40 -22 -18 -3 -21 4 -26 72 -8 89 -28 172 -65 260 -43 105 -36 99 -204 182
-66 32 -86 37 -170 42 -52 2 -115 1 -140 -4z m483 -929 c-4 -21 -8 -28 -13
-20 -5 6 -3 23 3 36 13 30 16 26 10 -16z"/>
<path d="M800 3779 c0 -7 10 -9 25 -5 20 5 25 3 25 -12 0 -18 37 -42 65 -42
23 0 30 42 9 57 -22 16 -124 18 -124 2z m80 -19 c0 -5 -4 -10 -10 -10 -5 0
-10 5 -10 10 0 6 5 10 10 10 6 0 10 -4 10 -10z m40 -12 c0 -4 -4 -8 -9 -8 -6
0 -12 4 -15 8 -3 5 1 9 9 9 8 0 15 -4 15 -9z"/>
<path d="M511 3674 c0 -11 3 -14 6 -6 3 7 2 16 -1 19 -3 4 -6 -2 -5 -13z"/>
<path d="M1219 3625 c-1 -3 -2 -10 -3 -15 0 -6 -7 -14 -14 -19 -15 -9 1 -24
60 -60 l36 -22 7 21 c7 24 27 16 23 -9 -2 -13 33 -61 46 -61 8 0 -4 84 -14 94
-8 8 -9 6 -4 -9 5 -16 1 -14 -21 8 -27 28 -80 54 -100 49 -5 -1 -1 5 9 13 19
15 19 15 -2 15 -12 0 -23 -2 -23 -5z m11 -45 c0 -5 -4 -10 -10 -10 -5 0 -10 5
-10 10 0 6 5 10 10 10 6 0 10 -4 10 -10z m57 -16 c-3 -3 -12 -4 -19 -1 -8 3
-5 6 6 6 11 1 17 -2 13 -5z"/>
<path d="M2471 3332 c-1 -63 2 -83 12 -79 13 4 12 65 -3 127 -6 28 -8 19 -9
-48z"/>
<path d="M0 2766 l0 -615 23 -4 22 -4 -22 -2 -23 -1 0 -385 0 -384 73 -22 c71
-21 194 -41 251 -40 16 0 34 -3 40 -8 6 -5 47 -12 91 -15 44 -4 91 -9 105 -11
14 -2 67 -7 119 -10 51 -3 125 -10 165 -17 39 -6 85 -12 101 -13 37 -2 95 -24
95 -36 0 -4 18 -14 40 -20 21 -7 37 -16 34 -20 -3 -5 -1 -17 5 -26 9 -17 10
-17 16 0 4 9 12 17 17 17 6 0 7 -7 4 -16 -3 -9 -2 -12 5 -9 6 4 7 -3 3 -22 -7
-25 -6 -27 9 -14 22 18 22 2 0 -47 -9 -20 -15 -43 -14 -50 1 -6 -5 -12 -14
-12 -8 0 -15 -5 -15 -10 0 -13 -45 -31 -90 -35 -19 -2 -61 -13 -92 -24 -31
-11 -96 -24 -145 -28 -57 -5 -78 -9 -59 -13 17 -3 29 -9 29 -14 0 -4 -30 -38
-66 -75 -53 -54 -76 -70 -121 -84 -31 -9 -62 -17 -69 -17 -22 1 27 24 63 30
39 6 38 3 25 108 l-8 62 58 0 c77 0 66 8 -21 15 -38 3 -89 8 -114 11 -67 7
-347 84 -452 124 -29 11 -56 20 -60 20 -5 0 -8 -58 -8 -130 0 -97 3 -130 13
-130 6 0 36 -19 66 -41 51 -39 59 -41 127 -43 40 -2 79 -7 86 -13 7 -6 30 -13
50 -17 34 -6 40 -13 68 -71 28 -58 34 -65 60 -65 l30 0 -22 -45 c-17 -35 -26
-44 -40 -39 -10 3 -18 0 -18 -6 0 -6 -4 -9 -9 -6 -5 3 -14 -1 -21 -9 -7 -8
-19 -15 -26 -15 -9 0 -14 -12 -14 -35 0 -33 2 -35 34 -35 l34 0 -5 -42 c-3
-24 -7 -45 -10 -47 -2 -3 -18 10 -36 28 -53 51 -85 26 -51 -40 9 -19 13 -41 9
-60 -5 -24 -3 -29 11 -29 13 0 15 -3 7 -11 -16 -16 -42 1 -97 65 -50 59 -85
76 -65 32 8 -17 8 -29 0 -45 -9 -16 -9 -19 1 -16 11 5 26 -16 56 -77 8 -18
-19 -5 -57 26 -22 19 -46 37 -53 39 -10 4 -10 8 1 15 9 7 10 12 2 16 -6 4 -15
-3 -21 -18 -6 -16 -15 -24 -23 -20 -10 3 -13 -2 -11 -18 1 -13 3 -27 3 -32 1
-4 13 -5 28 -2 21 5 24 4 13 -4 -13 -9 -11 -14 11 -33 l26 -24 -19 -26 -20
-27 842 0 c550 0 849 4 861 11 13 6 19 6 19 -1 0 -7 277 -10 869 -10 l869 0
16 47 c8 27 33 122 55 213 49 206 55 234 53 241 0 3 17 13 38 23 26 11 50 34
72 67 27 43 39 52 84 65 38 11 51 19 48 29 -3 8 -9 14 -12 13 -33 -4 -40 3
-32 32 9 32 3 70 -12 70 -5 0 -7 -4 -4 -9 4 -5 3 -16 0 -25 -5 -13 -9 -14 -20
-5 -8 6 -14 19 -14 28 0 14 2 14 10 1 16 -24 13 14 -4 55 -14 33 -14 70 0 240
3 33 5 68 5 78 0 10 6 36 14 57 18 50 0 54 -21 5 -18 -44 -24 -44 -18 0 2 20
0 35 -6 35 -5 0 -10 -21 -10 -47 -1 -27 -7 -77 -15 -113 l-14 -65 5 70 c15
210 16 265 6 293 -7 21 -7 33 1 41 11 11 17 81 7 81 -4 0 -18 -12 -33 -27 -14
-16 -53 -55 -86 -87 -33 -33 -58 -63 -55 -68 3 -4 -1 -5 -9 -2 -8 3 -32 1 -53
-5 -69 -18 -146 5 -250 77 -49 34 -117 85 -149 115 -33 29 -68 56 -77 60 -33
12 -20 -30 25 -78 23 -26 42 -50 42 -54 0 -10 59 -65 84 -79 14 -7 32 -12 40
-10 23 3 120 -22 127 -33 3 -6 0 -16 -6 -24 -6 -8 -9 -18 -6 -23 6 -11 -47
-59 -84 -75 -14 -7 -28 -15 -31 -19 -8 -11 -70 2 -63 13 3 5 -17 31 -44 57
-27 26 -52 58 -56 70 -4 12 -12 20 -17 16 -6 -3 -9 0 -8 7 1 8 -2 32 -6 54 -5
22 -8 43 -7 47 3 12 -35 88 -41 83 -4 -3 -5 -2 -2 1 4 7 -17 49 -66 128 -16
27 -28 55 -25 62 3 8 1 14 -4 14 -5 0 -7 7 -3 16 3 8 6 39 7 67 1 49 -1 53
-29 62 -38 13 -67 65 -95 170 -12 44 -31 95 -42 113 -23 37 -19 83 9 114 23
26 53 22 93 -12 19 -17 39 -30 46 -30 6 0 26 -7 44 -16 22 -11 28 -19 20 -24
-13 -8 -7 -40 8 -40 4 0 18 9 30 20 12 11 30 20 42 20 11 0 20 4 20 9 0 5 2
15 5 23 3 7 -6 25 -20 40 -20 22 -24 33 -18 60 3 18 11 36 16 40 7 4 6 12 -2
22 -11 13 -10 17 4 22 10 4 15 14 12 25 -3 11 -1 19 4 19 5 0 17 17 28 39 12
23 32 43 50 51 17 7 31 16 31 21 0 13 -14 11 -29 -3 -11 -11 -13 -10 -9 2 3
10 19 16 44 17 65 3 143 21 160 37 11 12 36 16 89 16 41 0 77 5 80 10 9 15 34
12 76 -7 29 -14 37 -22 33 -36 -4 -13 0 -20 15 -24 11 -3 18 -9 16 -14 -3 -4
20 -7 51 -6 33 2 62 -2 68 -9 7 -6 38 -24 69 -39 31 -14 57 -31 57 -36 0 -5
11 -9 24 -9 46 0 79 -26 83 -65 3 -32 -33 -252 -43 -264 -2 -2 -14 3 -28 12
-22 15 -31 14 -117 -4 -166 -35 -159 -36 -251 7 -46 21 -89 44 -96 51 -7 6
-34 15 -60 18 -26 4 -61 10 -77 14 -17 5 -39 4 -50 0 -15 -6 -10 -8 20 -9 22
-1 49 -6 60 -11 14 -6 2 -7 -35 -3 -30 4 -59 10 -65 14 -5 5 -31 6 -57 3 -36
-4 -48 -10 -52 -27 -8 -31 -7 -36 8 -36 8 0 16 3 19 8 2 4 2 2 1 -5 -4 -16 21
-24 35 -10 8 8 11 8 11 -1 0 -7 -4 -12 -10 -12 -17 0 -11 -99 7 -131 22 -37
81 -60 169 -67 90 -6 133 13 182 80 25 36 40 48 56 46 19 -3 22 -12 29 -88 4
-46 12 -89 19 -95 8 -7 9 -5 5 8 -7 19 8 24 19 6 18 -30 214 -77 214 -51 0 5
-25 12 -55 16 -123 14 -165 51 -165 145 0 74 15 84 114 79 45 -2 90 -10 101
-17 18 -11 17 -12 -13 -7 -31 5 -32 4 -21 -16 10 -19 9 -20 -7 -13 -37 14 -74
24 -74 18 0 -3 -8 1 -18 10 -16 15 -21 15 -37 3 -17 -12 -18 -17 -7 -40 16
-36 15 -38 -8 -26 -11 6 -20 7 -20 3 0 -5 14 -14 31 -20 38 -15 79 -1 86 27 7
25 15 25 37 1 16 -18 16 -20 -5 -35 -13 -9 -32 -13 -45 -10 -12 3 -30 1 -40
-4 -13 -7 -3 -11 41 -17 48 -6 60 -4 67 9 5 9 13 14 18 11 5 -3 11 -1 15 5 4
6 10 8 14 6 4 -3 14 10 21 29 8 19 17 35 21 35 4 0 11 21 14 48 4 26 16 90 27
141 15 73 19 123 16 215 -3 117 -5 124 -41 198 -62 123 -206 254 -337 307
-250 99 -559 20 -654 -169 -24 -47 -60 -159 -72 -223 -3 -21 -12 -41 -20 -44
-7 -2 -50 12 -96 32 -123 56 -179 74 -259 85 -40 6 -78 15 -86 21 -10 9 -13 7
-14 -7 -1 -11 -1 -22 -1 -25 1 -3 3 -40 6 -82 3 -59 1 -75 -9 -71 -7 3 -15 -2
-18 -10 -4 -9 -13 -16 -20 -16 -8 0 -20 -6 -26 -14 -17 -20 -59 -26 -72 -10
-6 8 -8 14 -4 14 5 0 0 9 -9 19 -12 13 -15 27 -11 42 7 20 5 21 -23 16 -20 -4
-32 -2 -35 6 -2 8 -11 7 -30 -6 -16 -10 -28 -13 -32 -7 -3 6 0 10 8 10 8 0 23
8 35 18 53 45 63 52 69 52 9 0 73 68 73 78 0 5 10 22 22 37 12 16 24 38 25 49
2 11 8 25 13 30 6 6 10 35 10 65 0 53 0 54 -19 35 -10 -10 -17 -22 -14 -26 2
-5 -1 -8 -8 -8 -7 0 -10 -3 -6 -6 3 -3 -5 -18 -19 -33 -13 -14 -27 -34 -30
-43 -3 -10 -12 -18 -21 -18 -8 0 -17 -9 -20 -19 -8 -30 -119 -112 -174 -128
-42 -13 -57 -13 -95 -2 -82 25 -135 98 -81 113 l22 7 -25 11 c-24 10 -24 11
20 23 25 6 55 17 67 23 12 7 29 12 37 12 9 0 45 14 81 31 59 28 83 45 74 54
-6 5 -181 -34 -193 -43 -6 -5 -41 -12 -78 -15 -61 -6 -67 -4 -72 13 -4 11 -9
29 -12 41 -6 20 -4 21 55 14 42 -5 61 -4 61 4 0 11 -16 14 -75 15 -22 1 -31 7
-36 26 -5 21 -7 23 -14 8 -4 -10 -5 -24 -2 -32 3 -7 1 -18 -3 -22 -5 -5 -12
-29 -15 -52 -4 -34 -1 -49 15 -69 22 -28 26 -58 10 -68 -13 -8 -80 41 -80 58
0 28 -75 87 -110 87 -6 0 -7 -16 -4 -36 4 -28 3 -35 -8 -29 -7 4 3 -6 22 -23
19 -16 38 -28 43 -25 4 2 6 -1 5 -9 -2 -8 5 -12 17 -10 15 2 17 0 6 -6 -9 -7
-10 -12 -2 -16 6 -4 11 -15 11 -25 0 -25 -67 -41 -143 -34 -80 8 -144 -17
-163 -63 -24 -58 -41 -43 -72 62 -20 65 -29 78 -113 165 -85 88 -139 172 -139
216 0 12 -4 12 -27 -1 -30 -15 -77 -26 -127 -31 -86 -9 -192 -27 -200 -36 -6
-5 18 -9 66 -9 43 0 80 -5 83 -10 21 -34 -190 -158 -317 -187 -60 -13 -74 -13
-133 0 -77 18 -132 53 -170 107 -27 38 -27 41 -23 177 l4 138 48 94 c34 68 44
97 36 105 -10 10 -182 23 -327 25 l-63 1 0 -614z m353 532 c-9 -18 -24 -42
-33 -53 -10 -11 -18 -27 -18 -35 0 -8 -5 -58 -11 -110 -6 -52 -12 -115 -14
-140 l-3 -45 -16 35 c-10 21 -13 39 -8 44 5 5 6 14 1 20 -10 13 -34 188 -32
230 1 15 6 37 12 47 10 20 49 27 49 9 0 -7 6 -7 19 -1 10 6 21 7 25 4 3 -3 6
-1 6 6 0 7 4 10 9 6 5 -3 12 -1 16 5 14 22 12 8 -2 -22z m2213 -754 c-3 -7 -1
-16 4 -19 6 -4 10 2 10 12 1 16 2 15 13 -3 7 -12 18 -19 26 -16 11 4 12 -3 7
-33 -11 -57 -46 -107 -83 -119 -18 -6 -23 -1 -33 29 -9 26 -9 39 -1 49 6 7 12
32 13 55 1 31 5 41 17 39 10 -2 15 4 15 14 -1 10 3 15 8 12 5 -3 7 -12 4 -20z
m-767 -98 c16 -28 10 -82 -14 -146 -19 -51 -22 -127 -5 -144 6 -6 67 -13 150
-16 121 -4 142 -8 167 -26 35 -26 40 -50 17 -75 -16 -18 -16 -20 4 -38 30 -25
28 -55 -5 -82 -18 -14 -24 -23 -15 -26 32 -12 37 -73 6 -73 -8 0 -14 -3 -14
-8 0 -4 -18 -15 -40 -25 -45 -19 -52 -30 -15 -23 17 3 28 -1 35 -14 8 -15 4
-21 -26 -35 -20 -9 -42 -18 -48 -19 -6 -1 -34 -10 -61 -19 -45 -15 -63 -16
-145 -6 -52 6 -126 14 -163 18 -81 7 -89 15 -107 100 -17 80 -10 101 45 131
69 38 81 83 59 213 -3 22 -2 49 4 60 5 12 22 54 38 92 15 39 36 82 46 97 10
14 18 28 18 31 0 3 4 17 10 31 12 33 43 34 59 2z m684 -11 c-3 -9 -8 -14 -10
-11 -3 3 -2 9 2 15 9 16 15 13 8 -4z m-2033 -55 c0 -5 -5 -10 -11 -10 -5 0 -7
5 -4 10 3 6 8 10 11 10 2 0 4 -4 4 -10z m68 -8 c2 -7 -2 -10 -12 -6 -21 8 -21
-14 1 -38 15 -17 15 -19 -3 -33 -24 -18 -38 -14 -42 11 -3 15 -1 16 7 4 16
-23 26 -2 11 24 -7 14 -10 32 -6 41 7 18 37 17 44 -3z m47 -22 c-9 -17 -14
-37 -12 -43 2 -7 14 7 26 31 12 23 24 42 27 42 10 0 -41 -83 -53 -88 -24 -7
-25 27 -3 63 27 43 38 40 15 -5z m-169 14 c-3 -9 -6 -30 -6 -47 0 -24 -3 -28
-10 -17 -5 8 -10 25 -10 38 0 12 -4 22 -10 22 -5 0 -10 5 -10 10 0 6 12 10 26
10 20 0 25 -4 20 -16z m2062 -29 c0 -34 -5 -51 -21 -65 -31 -29 -49 -26 -37 6
6 14 8 30 4 35 -3 5 5 13 17 17 14 5 18 11 11 16 -6 3 -13 2 -17 -4 -8 -13
-25 -13 -25 -1 0 9 44 37 62 40 3 1 6 -19 6 -44z m-2120 -5 c20 -65 15 -80
-14 -45 l-25 30 10 -27 c6 -16 7 -28 2 -28 -7 0 -41 81 -41 97 0 10 25 0 36
-14 12 -16 12 -16 7 5 -10 39 12 24 25 -18z m322 15 c0 -21 -40 -85 -53 -85
-7 0 -7 4 1 12 7 7 12 19 12 28 -1 11 -5 10 -19 -7 -32 -38 -32 -13 0 33 19
28 35 41 44 38 8 -4 15 -12 15 -19z m-214 -30 c-7 -26 -30 -33 -42 -13 -5 7
-2 9 9 5 12 -4 17 2 23 26 4 18 9 26 11 19 3 -7 2 -24 -1 -37z m-176 -10 c41
-66 -4 -90 -47 -26 -18 26 -20 37 -12 47 19 23 36 16 59 -21z m407 -13 c-39
-41 -34 -62 6 -24 47 46 58 40 13 -7 -38 -39 -66 -44 -66 -13 0 17 60 85 69
77 2 -3 -8 -18 -22 -33z m-480 -9 c4 -10 15 -24 25 -31 10 -7 18 -18 18 -24 0
-6 -9 -3 -19 6 -12 11 -21 13 -25 7 -4 -5 2 -14 11 -20 15 -9 15 -10 2 -11 -8
0 -29 15 -47 33 -25 26 -29 36 -20 45 18 18 48 15 55 -5z m-62 -44 c4 -5 18
-14 31 -19 27 -11 30 -22 10 -39 -11 -10 -23 -8 -55 9 -44 22 -48 29 -29 48
15 15 35 15 43 1z m423 -16 c-10 -2 -26 -2 -35 0 -10 3 -2 5 17 5 19 0 27 -2
18 -5z m124 -15 c-7 -7 -12 -8 -12 -2 0 14 12 26 19 19 2 -3 -1 -11 -7 -17z
m-79 -18 c3 -11 2 -20 -3 -20 -4 0 -10 11 -12 25 -6 29 7 25 15 -5z m-33 0 c0
-5 -7 -10 -16 -10 -8 0 -12 5 -9 10 3 6 10 10 16 10 5 0 9 -4 9 -10z m2813 -4
c83 -1 112 -6 155 -25 67 -30 76 -46 53 -97 -38 -82 -88 -107 -186 -93 -74 10
-119 30 -135 58 -13 26 -13 97 1 122 8 15 7 24 -3 37 -10 13 -10 14 0 8 7 -4
59 -9 115 -10z m-2965 -40 c14 5 14 4 2 -4 -18 -13 -30 -6 -29 16 1 16 2 16 6
0 3 -11 11 -15 21 -12z m3556 -37 c8 -8 2 -9 -24 -4 -53 11 -73 27 -26 21 22
-3 44 -10 50 -17z m-3475 1 c22 -6 40 -6 53 1 18 10 18 8 8 -11 -6 -11 -15
-18 -20 -15 -4 3 -10 -1 -13 -7 -3 -10 -9 -10 -28 1 l-24 14 19 -22 c15 -16
17 -24 8 -33 -9 -9 -12 -7 -12 9 0 12 -4 24 -9 27 -7 5 -23 46 -17 46 0 0 16
-4 35 -10z m-309 -35 c0 -5 -5 -3 -10 5 -5 8 -10 20 -10 25 0 6 5 3 10 -5 5
-8 10 -19 10 -25z m96 -140 c16 -8 22 -15 14 -15 -8 1 -24 7 -34 15 -25 19
-16 19 20 0z m684 -32 c0 -24 -6 -29 -125 -104 -44 -28 -97 -67 -117 -87 -26
-24 -38 -31 -38 -20 0 23 77 106 119 128 20 10 60 44 90 75 55 59 70 60 71 8z
m448 -41 c6 -5 12 -19 11 -33 -1 -13 0 -62 1 -109 1 -47 -4 -107 -10 -135 -17
-70 -21 -97 -21 -122 0 -12 -4 -25 -9 -28 -6 -3 -10 -19 -10 -36 0 -17 -5 -29
-13 -29 -9 0 -12 -9 -9 -29 3 -23 -1 -32 -18 -41 -13 -7 -18 -15 -12 -19 7 -4
5 -13 -4 -26 -13 -17 -16 -18 -24 -5 -5 8 -10 10 -10 4 0 -25 -30 -22 -66 6
-43 35 -91 50 -156 50 -26 0 -49 4 -52 9 -3 4 -8 35 -11 67 -4 33 -13 83 -22
112 -12 42 -13 59 -4 78 6 14 11 74 11 134 l0 109 53 10 c174 35 348 50 375
33z m-1313 -72 c-3 -5 -13 -10 -21 -10 -8 0 -12 5 -9 10 3 6 13 10 21 10 8 0
12 -4 9 -10z m45 -21 c0 -5 -4 -8 -9 -5 -5 4 -12 0 -14 -6 -3 -8 -6 -6 -6 5
-1 9 6 17 14 17 8 0 15 -5 15 -11z m2636 -44 c-17 -13 -17 -17 -5 -46 7 -18
49 -73 93 -123 110 -125 169 -196 161 -196 -3 0 -17 11 -31 25 -14 14 -29 23
-34 20 -5 -3 -12 -1 -15 5 -4 6 -15 8 -24 5 -10 -3 -24 1 -31 10 -7 8 -16 12
-21 9 -5 -3 -8 -2 -7 3 4 12 -91 103 -108 103 -8 0 -14 4 -14 8 0 5 -7 17 -16
28 -9 10 -4 -2 11 -28 14 -27 23 -48 19 -48 -4 0 4 -10 18 -22 27 -25 53 -67
45 -74 -3 -3 -11 9 -18 25 -10 22 -21 31 -37 31 -13 0 -20 4 -17 10 3 6 -1 7
-9 4 -9 -4 -18 0 -22 10 -5 12 -10 13 -25 5 -13 -7 -25 -7 -37 1 -15 9 -14 10
8 8 17 -2 26 2 28 15 5 25 -13 21 -45 -12 -36 -36 -68 -52 -168 -86 -44 -15
-83 -30 -88 -34 -4 -4 13 -28 39 -54 32 -33 54 -47 72 -47 l27 1 -27 20 c-16
11 -28 27 -28 34 0 7 -11 16 -25 19 -14 4 -25 11 -25 16 0 6 11 8 25 4 13 -3
39 -1 56 5 29 10 34 8 61 -20 22 -23 27 -34 19 -42 -6 -6 -11 -15 -11 -21 0
-6 5 -5 11 1 9 9 16 8 27 -3 20 -20 32 -6 39 45 6 46 26 63 58 51 34 -13 47
-36 52 -98 5 -51 2 -68 -22 -118 -15 -33 -43 -83 -61 -112 -19 -29 -34 -57
-34 -62 0 -6 -9 -10 -21 -10 -11 0 -17 -4 -14 -10 3 -5 33 -10 65 -10 32 0 82
-5 110 -12 40 -9 56 -9 71 0 25 16 117 15 149 -1 13 -7 31 -24 39 -38 12 -22
12 -29 0 -55 -13 -27 -19 -29 -77 -34 -66 -5 -80 -17 -41 -37 44 -22 59 -50
47 -84 -6 -17 -19 -36 -29 -42 -38 -23 -23 -38 31 -31 43 6 53 4 65 -12 18
-23 19 -45 3 -79 -11 -24 -32 -34 -110 -50 -36 -7 -36 -25 0 -25 85 0 57 -102
-35 -130 -63 -19 -367 -22 -427 -5 -63 19 -175 19 -235 0 -25 -8 -102 -28
-171 -44 -257 -61 -353 -87 -467 -129 -45 -17 -84 -28 -87 -24 -3 3 -6 0 -6
-6 0 -6 -15 -14 -32 -18 -18 -4 -37 -9 -43 -11 -5 -1 -30 -8 -55 -14 -25 -6
-54 -16 -65 -22 -11 -6 -68 -13 -126 -15 -101 -4 -109 -3 -185 29 -84 35 -171
79 -216 111 -26 18 -28 25 -28 84 0 36 6 77 14 92 26 50 200 196 223 187 8 -2
11 -1 8 4 -8 15 7 20 76 26 35 3 78 7 94 10 17 2 98 6 180 9 83 4 170 9 195
13 25 3 48 6 51 5 6 -1 110 14 154 23 11 2 45 9 75 15 31 5 95 24 143 40 48
16 118 34 155 40 37 6 83 16 102 22 49 17 112 89 164 188 25 47 60 101 79 121
l34 35 -19 50 c-24 61 -33 69 -25 24 3 -19 3 -29 0 -22 -3 9 -14 3 -34 -18
-17 -17 -34 -28 -39 -25 -6 4 -13 -1 -16 -9 -3 -9 -21 -18 -40 -22 -19 -3 -34
-11 -34 -16 0 -6 -9 -8 -19 -5 -23 6 -32 -12 -24 -44 9 -32 -24 -55 -48 -33
-23 20 -36 12 -44 -28 l-7 -31 -16 26 c-19 31 -42 36 -42 8 0 -10 -7 -32 -15
-47 l-15 -29 0 36 c0 41 -23 71 -34 43 -3 -8 -6 -28 -6 -44 0 -35 -29 -69 -41
-49 -5 8 -3 17 4 21 17 11 5 10 -31 -3 -23 -8 -34 -20 -43 -47 -7 -20 -12 -45
-11 -54 0 -10 -3 -18 -9 -18 -5 0 -9 6 -9 14 0 8 -9 18 -20 21 -11 3 -20 11
-20 16 0 16 -21 -1 -30 -25 l-9 -21 0 22 c-1 27 -56 49 -75 30 -7 -7 -11 -18
-8 -25 5 -17 -6 -15 -25 4 -9 8 -19 12 -22 7 -3 -5 -23 -22 -43 -37 l-38 -28
0 23 c0 13 -5 31 -10 39 -13 20 -26 1 -34 -51 -3 -22 -9 -39 -13 -39 -15 0
-43 34 -43 52 0 11 -4 17 -9 13 -6 -3 -14 3 -20 12 -6 10 -11 13 -11 6 0 -6 4
-15 10 -18 14 -9 9 -78 -8 -95 -12 -11 -16 -12 -20 -2 -2 7 -8 10 -13 6 -5 -3
-9 0 -9 5 0 17 -21 13 -40 -9 -16 -19 -17 -19 -39 11 l-23 31 24 16 c12 9 35
28 49 42 15 14 33 26 39 28 7 2 40 22 74 46 33 24 102 63 151 87 55 26 111 63
145 94 30 28 92 77 136 108 81 56 154 127 154 148 0 21 127 109 158 109 8 0
62 23 120 51 214 102 247 117 275 123 16 4 39 19 52 34 l24 27 -5 -25 c-3 -14
4 -5 15 20 11 25 20 53 20 62 1 9 9 22 19 27 26 16 40 12 18 -4z m-2755 -18
c-10 -9 -11 -8 -5 6 3 10 9 15 12 12 3 -3 0 -11 -7 -18z m19 -22 c0 -9 -9 -15
-22 -15 -21 0 -21 0 -2 15 24 18 24 18 24 0z m3713 -261 c-3 -24 0 -39 8 -45
11 -6 11 -9 -2 -14 -10 -4 -13 -17 -11 -46 3 -28 -2 -54 -17 -83 -12 -23 -23
-57 -25 -76 -1 -19 -8 -48 -15 -65 -7 -16 -13 -40 -13 -52 0 -13 -4 -20 -9
-17 -5 3 -9 -4 -9 -16 0 -11 -7 -23 -15 -26 -22 -9 -18 -23 4 -17 16 4 19 1
14 -19 -8 -31 -24 -40 -38 -22 -9 13 -15 6 -35 -38 -13 -29 -32 -60 -42 -69
-10 -9 -18 -23 -18 -32 0 -9 -7 -23 -16 -32 -10 -10 -14 -24 -10 -40 5 -18 2
-25 -9 -25 -9 0 -15 -9 -15 -24 0 -14 -5 -28 -12 -32 -7 -4 -8 -3 -4 4 5 8 2
10 -8 6 -9 -3 -13 -11 -9 -18 12 -19 11 -33 -2 -33 -7 0 -11 7 -8 15 3 8 -6 2
-21 -12 -14 -15 -26 -32 -26 -38 0 -9 3 -9 12 0 20 20 36 14 41 -16 l4 -27 2
30 c1 24 10 35 46 58 55 32 65 33 65 7 0 -12 7 -32 16 -45 10 -15 12 -25 5
-25 -6 0 -11 7 -11 16 0 8 -4 13 -9 9 -5 -3 -12 3 -14 12 -2 10 -4 6 -2 -9 1
-15 -5 -30 -12 -32 -8 -4 -13 3 -13 19 0 13 -4 26 -8 29 -5 3 -6 -22 -4 -55 3
-44 1 -59 -9 -59 -10 0 -10 -3 -1 -12 16 -16 16 -52 0 -42 -6 4 -4 -3 5 -17
22 -31 21 -45 -3 -69 -21 -21 -46 -28 -35 -10 3 5 1 10 -4 10 -6 0 -11 -8 -11
-18 0 -22 -39 -47 -52 -34 -5 5 -8 33 -6 63 3 47 6 54 26 57 17 3 22 -1 22
-20 -1 -21 -1 -22 -11 -4 -15 25 -29 3 -29 -47 0 -52 21 -44 39 14 25 80 30
88 30 53 1 -17 9 -38 18 -45 15 -13 16 -12 8 11 -4 14 -8 42 -9 63 0 27 -4 36
-13 33 -9 -4 -13 4 -13 25 0 19 -4 28 -11 24 -6 -4 -7 -19 -4 -36 4 -18 3 -29
-4 -29 -6 0 -11 19 -11 43 0 44 -19 91 -21 52 0 -11 -3 -14 -6 -7 -10 24 -23
0 -23 -44 0 -34 4 -44 16 -44 11 0 15 6 11 18 -2 9 -6 23 -8 31 -2 7 2 16 9
18 8 3 12 -8 12 -36 0 -49 -24 -66 -48 -35 -14 18 -14 18 -9 -4 5 -22 -23 -49
-37 -35 -3 3 -6 1 -6 -5 0 -7 -5 -12 -12 -12 -6 0 -20 -7 -30 -17 -17 -15 -18
-13 -18 51 0 52 4 68 16 73 9 3 20 0 25 -8 7 -11 9 -9 10 9 2 36 3 40 13 49 5
4 6 3 2 -4 -3 -6 -1 -15 5 -18 7 -5 9 -23 4 -50 -3 -24 -2 -46 3 -49 5 -3 9
20 10 51 1 39 6 60 17 65 8 5 15 16 15 24 0 10 -5 12 -12 8 -10 -6 -10 -5 -1
7 39 48 73 131 73 178 0 31 5 53 15 61 8 7 15 23 15 36 0 25 15 33 22 12 3 -8
10 -4 17 11 8 14 9 21 2 17 -19 -12 -12 12 7 26 16 11 18 21 12 73 -4 33 -3
71 2 84 5 15 5 36 -2 54 -10 31 -4 77 11 77 5 0 9 -3 10 -7 0 -5 2 -55 4 -112
2 -57 7 -106 10 -109 12 -13 59 24 67 53 12 38 13 186 3 248 -9 57 0 62 15 7
18 -67 36 -50 50 48 9 63 19 93 34 109 11 13 22 23 22 23 1 0 0 -16 -3 -36z
m-1145 -2 c2 -7 -2 -10 -12 -6 -9 3 -16 11 -16 16 0 13 23 5 28 -10z m918
-131 c-3 -9 -7 -37 -8 -63 -3 -48 -13 -63 -20 -30 -3 12 -10 5 -25 -25 -14
-29 -18 -45 -11 -50 7 -4 8 -1 3 7 -5 9 -4 11 3 6 9 -5 9 -13 2 -27 -6 -10
-13 -19 -16 -19 -3 0 -3 4 0 9 3 5 -1 14 -9 21 -13 11 -14 10 -8 -5 5 -15 3
-17 -11 -12 -10 4 -19 1 -23 -9 -3 -8 -12 -13 -19 -10 -8 3 -14 0 -15 -7 0 -9
-2 -9 -6 1 -2 6 -9 10 -13 7 -5 -3 -24 1 -42 8 -33 14 -32 14 22 9 l55 -4 63
70 c60 68 62 72 56 112 -6 35 -4 40 10 34 10 -4 15 -13 12 -23z m-530 -38 c-4
-9 -1 -22 5 -29 9 -11 8 -14 -2 -14 -8 0 -20 4 -27 9 -10 6 -10 10 3 21 9 7
14 19 11 27 -4 8 -1 11 5 8 6 -4 8 -14 5 -22z m551 -35 c-3 -8 -6 -5 -6 6 -1
11 2 17 5 13 3 -3 4 -12 1 -19z m-584 -40 c15 -16 16 -19 2 -24 -13 -5 -12 -9
5 -24 21 -18 28 -46 8 -34 -6 4 -18 -2 -26 -12 -13 -18 -14 -18 -7 3 5 17 0
29 -19 46 -14 14 -23 31 -21 43 2 10 4 19 4 19 12 6 40 -4 54 -17z m72 12 c4
-6 10 -8 15 -5 5 3 12 1 15 -5 4 -6 1 -9 -6 -8 -6 2 -14 -3 -17 -11 -3 -8 0
-11 6 -7 6 4 18 -6 26 -23 11 -21 12 -31 4 -33 -7 -3 -8 -9 -3 -18 13 -20 15
-60 4 -60 -5 0 -9 11 -9 24 0 13 -6 29 -14 35 -8 7 -17 27 -20 46 -4 20 -13
35 -21 35 -8 0 -11 7 -8 20 6 22 18 26 28 10z m-158 -42 c-3 -8 -6 -5 -6 6 -1
11 2 17 5 13 3 -3 4 -12 1 -19z m-145 -30 c-7 -7 -12 -8 -12 -2 0 14 12 26 19
19 2 -3 -1 -11 -7 -17z m776 -10 c-7 -12 -18 -26 -24 -30 -5 -4 -11 -26 -13
-50 -1 -24 -7 -47 -13 -53 -7 -7 -8 -3 -3 14 5 16 4 21 -4 17 -24 -15 -3 51
27 84 18 19 32 39 32 44 0 5 3 7 6 4 3 -3 -1 -17 -8 -30z m-378 -3 c13 -14 21
-25 18 -25 -2 0 -15 11 -28 25 -13 14 -21 25 -18 25 2 0 15 -11 28 -25z m-240
-11 c0 -8 -4 -12 -10 -9 -5 3 -10 10 -10 16 0 5 5 9 10 9 6 0 10 -7 10 -16z
m540 -70 c0 -8 -4 -14 -8 -14 -4 0 -8 9 -8 19 0 11 4 17 8 15 4 -3 8 -12 8
-20z m340 -81 c-11 -17 -11 -17 -6 0 3 10 7 35 8 55 l1 37 4 -37 c2 -21 -1
-46 -7 -55z m-457 70 c-7 -2 -21 -2 -30 0 -10 3 -4 5 12 5 17 0 24 -2 18 -5z
m61 -8 c-4 -8 -12 -15 -19 -15 -7 0 -16 -7 -19 -16 -5 -14 -4 -15 8 -5 12 10
14 9 9 -8 -3 -12 -9 -18 -14 -15 -5 3 -9 -6 -9 -20 0 -14 -4 -28 -10 -31 -5
-3 -10 -14 -10 -23 0 -10 -10 -23 -21 -31 -21 -13 -22 -12 -17 27 3 22 1 45
-4 50 -6 6 -11 21 -12 34 -1 14 -10 27 -23 33 -33 14 -28 22 11 17 26 -3 36
-10 40 -28 8 -30 26 -31 26 -1 0 18 -2 19 -10 7 -8 -13 -10 -12 -10 3 0 13 8
17 35 17 19 0 35 5 35 10 0 6 4 10 10 10 5 0 7 -7 4 -15z m46 -54 c0 -4 -10
-15 -22 -25 -19 -16 -20 -17 -15 -1 4 9 7 23 7 31 0 8 6 11 15 8 8 -4 15 -9
15 -13z m-304 -36 c-4 -18 -2 -52 3 -74 5 -23 5 -43 1 -46 -11 -7 -23 50 -22
98 1 21 -3 37 -9 37 -8 0 -8 5 1 15 19 23 33 7 26 -30z m651 -27 c-3 -8 -6 -5
-6 6 -1 11 2 17 5 13 3 -3 4 -12 1 -19z m-547 -33 c12 -19 20 -45 17 -57 -3
-22 -4 -22 -11 -3 -4 11 -14 32 -22 47 -28 53 -16 64 16 13z m537 -37 c-3 -8
-6 -5 -6 6 -1 11 2 17 5 13 3 -3 4 -12 1 -19z m-188 -34 c-18 -35 -19 -36 -14
-9 4 16 11 36 17 43 20 23 18 6 -3 -34z m-520 10 c40 -51 18 -124 -37 -124
-22 0 -24 3 -19 30 4 16 1 43 -4 60 -21 60 21 84 60 34z m698 -36 c-3 -8 -6
-5 -6 6 -1 11 2 17 5 13 3 -3 4 -12 1 -19z m-10 -60 c-3 -8 -6 -5 -6 6 -1 11
2 17 5 13 3 -3 4 -12 1 -19z m-387 -24 c0 -8 -7 -14 -15 -14 -15 0 -21 21 -9
33 10 9 24 -2 24 -19z m-50 -34 c0 -5 -4 -10 -10 -10 -5 0 -10 5 -10 10 0 6 5
10 10 10 6 0 10 -4 10 -10z m30 0 c0 -5 -5 -10 -11 -10 -5 0 -7 5 -4 10 3 6 8
10 11 10 2 0 4 -4 4 -10z m317 -12 c-3 -8 -6 -5 -6 6 -1 11 2 17 5 13 3 -3 4
-12 1 -19z m-147 -2 c0 -2 -7 -7 -16 -10 -8 -3 -12 -2 -9 4 6 10 25 14 25 6z
m129 -19 c0 -9 -2 -8 -6 1 -2 6 -10 9 -15 6 -7 -4 -8 -2 -4 5 9 13 26 5 25
-12z m-29 -93 c0 -8 -19 -13 -24 -6 -3 5 1 9 9 9 8 0 15 -2 15 -3z m19 -59 c0
-5 -6 -2 -13 8 -8 11 -17 14 -20 8 -4 -5 3 -19 15 -29 25 -24 23 -75 -3 -80
-13 -3 -18 3 -17 20 0 13 3 17 6 11 7 -18 23 -16 23 2 0 9 -7 18 -15 21 -8 3
-17 14 -20 25 -13 40 -26 18 -24 -38 2 -31 -1 -58 -7 -60 -5 -2 -9 16 -9 40 0
23 -4 48 -9 55 -10 14 3 32 25 36 8 1 23 7 34 13 16 10 21 9 27 -5 4 -9 7 -21
7 -27z m-379 -6 c0 -11 -4 -17 -10 -14 -5 3 -10 -1 -10 -10 0 -9 5 -13 10 -10
6 3 10 -1 10 -9 0 -9 -7 -16 -15 -16 -8 0 -15 -9 -15 -20 0 -25 17 -26 23 -2
4 13 5 12 6 -5 1 -17 -8 -27 -35 -38 -20 -8 -37 -15 -38 -15 -2 0 -1 13 2 30
3 23 1 30 -13 30 -14 0 -16 -7 -13 -30 3 -21 0 -30 -9 -30 -10 0 -12 14 -8 58
3 31 3 52 -1 45 -3 -7 -12 -9 -21 -6 -13 5 -14 -3 -12 -51 3 -41 1 -56 -9 -56
-7 0 -10 5 -7 10 3 6 3 31 -1 56 -4 31 -9 42 -15 33 -7 -11 -9 -10 -9 3 0 17
9 21 68 33 25 5 33 3 31 -7 -4 -29 2 -49 12 -43 5 4 9 18 7 32 -2 21 3 27 32
38 19 7 36 13 38 14 1 0 2 -8 2 -20z m130 -102 c0 -5 -5 -5 -12 -1 -8 5 -9 -8
-5 -49 4 -34 3 -58 -3 -62 -6 -4 -10 15 -10 50 0 32 -4 54 -9 50 -5 -3 -8 -30
-6 -60 3 -56 -10 -77 -18 -27 -4 26 -4 25 -6 -5 -2 -44 -21 -53 -22 -11 l-2
33 -6 -35 c-4 -26 -11 -35 -26 -35 -17 0 -20 8 -23 47 -3 41 1 51 24 73 34 32
44 32 44 0 0 -14 5 -25 11 -25 6 0 8 11 5 28 -5 22 -2 30 21 44 27 16 42 10
43 -15z m-162 -122 c-2 -25 -9 -47 -16 -50 -8 -3 -11 3 -7 20 3 14 7 36 10 50
9 40 16 29 13 -20z m-1448 -145 c0 -5 3 -15 6 -24 3 -9 2 -16 -3 -16 -5 0 -14
13 -20 29 -9 24 -8 29 3 24 8 -3 14 -9 14 -13z m25 0 c3 -5 1 -10 -4 -10 -6 0
-11 5 -11 10 0 6 2 10 4 10 3 0 8 -4 11 -10z"/>
<path d="M281 3194 c0 -11 3 -14 6 -6 3 7 2 16 -1 19 -3 4 -6 -2 -5 -13z"/>
<path d="M250 3151 c0 -5 5 -13 10 -16 6 -3 10 -2 10 4 0 5 -4 13 -10 16 -5 3
-10 2 -10 -4z"/>
<path d="M2008 2013 c7 -3 16 -2 19 1 4 3 -2 6 -13 5 -11 0 -14 -3 -6 -6z"/>
<path d="M2058 1893 c7 -3 16 -2 19 1 4 3 -2 6 -13 5 -11 0 -14 -3 -6 -6z"/>
<path d="M626 2335 c-3 -8 -1 -15 4 -15 6 0 10 7 10 15 0 8 -2 15 -4 15 -2 0
-6 -7 -10 -15z"/>
<path d="M237 2290 c9 -16 21 -30 25 -30 12 0 10 8 -8 35 -23 36 -39 31 -17
-5z"/>
<path d="M165 2270 c3 -5 11 -10 16 -10 6 0 7 5 4 10 -3 6 -11 10 -16 10 -6 0
-7 -4 -4 -10z"/>
<path d="M110 2220 c0 -5 5 -10 11 -10 5 0 7 5 4 10 -3 6 -8 10 -11 10 -2 0
-4 -4 -4 -10z"/>
<path d="M146 2201 c-3 -5 1 -11 9 -15 8 -3 15 -1 15 4 0 13 -18 22 -24 11z"/>
<path d="M3341 2127 c-19 -7 -36 -18 -39 -25 -3 -11 0 -12 17 -3 18 10 23 8
33 -14 15 -33 52 -33 74 0 15 23 18 24 34 10 24 -22 36 -18 15 5 -10 11 -34
24 -54 30 -43 12 -37 12 -80 -3z"/>
<path d="M3487 2106 c10 -13 20 -20 21 -15 5 12 -17 39 -30 39 -5 0 -1 -11 9
-24z"/>
<path d="M3566 2065 c-9 -14 -24 -37 -33 -52 l-17 -28 23 20 c24 21 56 74 48
81 -2 3 -12 -7 -21 -21z"/>
<path d="M2498 1453 c6 -2 10 -8 7 -13 -3 -4 4 -6 15 -3 25 7 16 23 -13 22
-12 0 -16 -3 -9 -6z"/>
<path d="M2915 1430 c3 -5 8 -10 11 -10 2 0 4 5 4 10 0 6 -5 10 -11 10 -5 0
-7 -4 -4 -10z"/>
<path d="M2198 1343 c7 -3 16 -2 19 1 4 3 -2 6 -13 5 -11 0 -14 -3 -6 -6z"/>
<path d="M2136 1315 c-11 -8 -18 -17 -15 -19 2 -2 15 4 28 15 27 22 15 26 -13
4z"/>
<path d="M2570 1259 c0 -5 5 -7 10 -4 6 3 10 8 10 11 0 2 -4 4 -10 4 -5 0 -10
-5 -10 -11z"/>
<path d="M3486 565 c-9 -23 5 -96 16 -89 9 6 4 91 -5 101 -3 2 -7 -3 -11 -12z"/>
<path d="M3286 407 c3 -10 9 -15 12 -12 3 3 0 11 -7 18 -10 9 -11 8 -5 -6z"/>
<path d="M3195 401 c-4 -23 -2 -48 4 -58 8 -14 10 -5 11 40 0 67 -5 73 -15 18z"/>
<path d="M3246 266 c-7 -37 1 -69 15 -60 5 3 9 18 9 35 0 16 5 29 10 29 19 0
10 26 -9 27 -14 1 -21 -7 -25 -31z"/>
<path d="M740 3359 c0 -27 131 -141 146 -126 2 2 -7 10 -21 17 -15 8 -23 20
-21 27 3 8 -4 17 -18 23 -13 5 -38 24 -55 42 -21 22 -31 28 -31 17z"/>
<path d="M2150 3303 c-8 -3 -26 -10 -39 -15 -13 -5 -21 -11 -18 -14 8 -8 77
16 77 27 0 5 -1 9 -2 8 -2 0 -10 -3 -18 -6z"/>
<path d="M874 3265 c22 -17 40 -20 32 -6 -3 5 -16 11 -28 14 -22 6 -22 5 -4
-8z"/>
<path d="M932 3253 c-6 -2 -9 -10 -5 -16 4 -7 0 -8 -13 -4 -18 7 -18 7 0 -8
11 -8 28 -15 37 -15 10 0 21 -4 24 -10 7 -11 64 -14 89 -4 26 10 19 22 -24 44
-37 19 -80 24 -108 13z"/>
<path d="M1330 3240 c-8 -14 -5 -16 14 -13 12 3 23 10 23 17 0 19 -27 15 -37
-4z"/>
<path d="M2101 3211 c-12 -8 -12 -12 1 -25 9 -9 18 -20 20 -26 2 -6 16 -8 36
-4 25 5 32 11 32 31 0 13 4 22 10 18 5 -3 7 -12 4 -20 -5 -12 -1 -12 20 -2 14
7 26 15 26 18 0 18 -123 26 -149 10z"/>
<path d="M1307 3188 c-4 -15 -22 -45 -39 -65 -29 -34 -30 -36 -4 -13 32 29 59
76 53 93 -2 7 -7 0 -10 -15z"/>
<path d="M1660 3158 c-45 -28 -20 -36 45 -14 25 9 52 16 60 16 8 0 15 5 15 10
0 19 -84 11 -120 -12z"/>
<path d="M2070 3150 c0 -6 7 -10 15 -10 8 0 15 2 15 4 0 2 -7 6 -15 10 -8 3
-15 1 -15 -4z"/>
<path d="M1839 3136 c-2 -3 -29 -7 -59 -11 -61 -6 -110 -23 -110 -36 0 -5 -6
-9 -14 -9 -20 0 -27 -13 -16 -30 6 -9 28 -13 72 -12 83 1 80 1 73 11 -3 5 3
12 14 16 11 3 21 16 24 28 3 21 4 21 12 2 5 -11 13 -23 18 -26 5 -4 -13 -17
-40 -30 -51 -25 -66 -37 -71 -57 -4 -20 45 -3 122 41 45 25 55 57 31 94 -14
20 -44 31 -56 19z m-99 -66 c0 -5 -5 -10 -11 -10 -5 0 -7 5 -4 10 3 6 8 10 11
10 2 0 4 -4 4 -10z"/>
<path d="M2150 3101 c-39 -6 -42 -8 -22 -15 27 -9 88 0 97 14 7 11 -4 11 -75
1z"/>
<path d="M1577 3033 c-4 -3 -7 -11 -7 -17 0 -6 5 -5 12 2 6 6 9 14 7 17 -3 3
-9 2 -12 -2z"/>
<path d="M1544 2988 c-4 -6 13 -49 38 -97 34 -67 49 -86 66 -87 27 -2 29 26 4
75 -19 37 -37 39 -37 4 1 -13 -2 -23 -6 -23 -14 0 -20 59 -9 80 8 16 8 25 0
35 -15 18 -49 25 -56 13z"/>
<path d="M2045 2990 c-8 -13 5 -13 25 0 13 8 13 10 -2 10 -9 0 -20 -4 -23 -10z"/>
<path d="M2455 2980 c-3 -5 -1 -10 4 -10 6 0 11 5 11 10 0 6 -2 10 -4 10 -3 0
-8 -4 -11 -10z"/>
<path d="M2441 2764 c0 -11 3 -14 6 -6 3 7 2 16 -1 19 -3 4 -6 -2 -5 -13z"/>
<path d="M2467 2743 c-3 -5 -1 -17 4 -28 7 -17 8 -17 8 8 1 27 -4 34 -12 20z"/>
<path d="M3171 2223 c-1 -6 -4 -20 -7 -30 -5 -17 -5 -17 6 0 6 10 9 23 6 30
-3 9 -5 9 -5 0z"/>
<path d="M4044 2066 c-3 -8 0 -24 6 -36 8 -16 8 -30 -1 -58 -13 -40 -27 -63
-37 -59 -4 1 -8 -2 -10 -8 -2 -5 1 -11 6 -13 5 -1 22 16 37 38 16 23 36 47 45
53 21 16 44 68 26 61 -7 -3 -21 4 -31 16 -21 24 -34 25 -41 6z"/>
<path d="M2926 2016 c3 -9 11 -16 16 -16 13 0 5 23 -10 28 -7 2 -10 -2 -6 -12z"/>
<path d="M2976 1891 c-4 -7 -5 -15 -2 -18 9 -9 19 4 14 18 -4 11 -6 11 -12 0z"/>
<path d="M3378 1665 c12 -9 43 -22 68 -30 26 -8 50 -19 54 -25 4 -6 27 -11 51
-12 24 0 49 -5 56 -10 7 -5 22 -6 35 -2 23 7 23 6 4 -15 -14 -16 -15 -21 -5
-21 16 1 83 59 76 66 -11 11 -67 22 -67 13 0 -5 -5 -9 -11 -9 -5 0 -7 5 -4 10
8 12 7 12 -31 1 -38 -11 -111 1 -176 29 -56 24 -81 26 -50 5z"/>
<path d="M1016 1163 c-11 -11 -6 -23 9 -23 8 0 15 4 15 9 0 13 -16 22 -24 14z"/>
<path d="M245 310 c4 -6 11 -8 16 -5 14 9 11 15 -7 15 -8 0 -12 -5 -9 -10z"/>
<path d="M0 286 c0 -8 7 -16 15 -20 9 -3 15 0 15 10 0 11 6 14 16 10 8 -3 12
-2 9 4 -10 15 -55 12 -55 -4z"/>
</g>
</svg>
